<svg width="200" height="300" viewBox="0 0 200 300" fill="none" xmlns="http://www.w3.org/2000/svg">
  <!-- Background -->
  <rect width="200" height="300" rx="4" fill="#F8F9FA"/>
  
  <!-- Book spine shadow -->
  <rect x="20" y="20" width="160" height="260" rx="2" fill="#E9ECEF"/>
  
  <!-- Book cover -->
  <rect x="25" y="25" width="150" height="250" rx="2" fill="#DEE2E6"/>
  
  <!-- Book title lines -->
  <rect x="50" y="100" width="100" height="8" rx="4" fill="#ADB5BD"/>
  <rect x="50" y="120" width="80" height="8" rx="4" fill="#ADB5BD"/>
  
  <!-- Author line -->
  <rect x="50" y="160" width="60" height="6" rx="3" fill="#CED4DA"/>
  
  <!-- Book icon -->
  <path d="M100 70 C100 60, 90 60, 85 65 L85 75 C90 70, 100 70, 100 80 L100 70 Z" fill="#ADB5BD"/>
  <path d="M100 70 C100 60, 110 60, 115 65 L115 75 C110 70, 100 70, 100 80 L100 70 Z" fill="#868E96"/>
  
  <!-- Text -->
  <text x="100" y="220" font-family="sans-serif" font-size="12" text-anchor="middle" fill="#6C757D">No Cover Available</text>
</svg> 